<svg width="1800" height="1200" viewBox="0 0 1800 1200" fill="none" xmlns="http://www.w3.org/2000/svg">
  <rect width="1800" height="1200" fill="#050505"/>
  <defs>
    <radialGradient id="g1" cx="0" cy="0" r="1" gradientUnits="userSpaceOnUse" gradientTransform="translate(990 470) rotate(112) scale(720 960)">
      <stop stop-color="#C8914C" stop-opacity="0.42"/>
      <stop offset="0.42" stop-color="#382518" stop-opacity="0.58"/>
      <stop offset="1" stop-color="#050505" stop-opacity="0"/>
    </radialGradient>
    <linearGradient id="g2" x1="900" y1="0" x2="900" y2="1200" gradientUnits="userSpaceOnUse">
      <stop stop-color="#19130E"/>
      <stop offset="0.52" stop-color="#0A0908"/>
      <stop offset="1" stop-color="#050505"/>
    </linearGradient>
    <filter id="blur" x="-20%" y="-20%" width="140%" height="140%">
      <feGaussianBlur stdDeviation="18"/>
    </filter>
  </defs>
  <rect width="1800" height="1200" fill="url(#g2)"/>
  <rect width="1800" height="1200" fill="url(#g1)"/>
  <path d="M0 772C244 630 420 660 612 722C822 790 1035 798 1250 684C1438 584 1596 542 1800 610V1200H0V772Z" fill="#070706"/>
  <g filter="url(#blur)" opacity="0.58">
    <ellipse cx="938" cy="560" rx="172" ry="230" fill="#090807"/>
    <ellipse cx="762" cy="610" rx="116" ry="158" fill="#090807"/>
    <ellipse cx="1112" cy="620" rx="116" ry="158" fill="#090807"/>
  </g>
  <path d="M923 334H958V776H923V334Z" fill="#E8C893" fill-opacity="0.38"/>
  <path d="M808 463H1073V497H808V463Z" fill="#E8C893" fill-opacity="0.32"/>
  <rect x="86" y="88" width="1628" height="1024" stroke="#F3EADB" stroke-opacity="0.08"/>
</svg>
